<svg width="1024" height="1024" viewBox="0 0 1024 1024" fill="none" xmlns="http://www.w3.org/2000/svg">
<g clip-path="url(#clip0)">
<path d="M512.044 833.511C469.411 834.159 427.075 826.322 387.499 810.456C347.923 794.59 311.898 771.011 281.521 741.091C251.143 711.172 227.019 675.51 210.552 636.18C194.086 596.85 185.606 554.638 185.606 512C185.606 469.362 194.086 427.15 210.552 387.82C227.019 348.49 251.143 312.828 281.521 282.909C311.898 252.989 347.923 229.41 387.499 213.544C427.075 197.678 469.411 189.841 512.044 190.489V5.40494e-06C410.769 -0.0147062 311.765 30.0032 227.551 86.2577C143.337 142.512 77.6966 222.476 38.9303 316.038C0.164056 409.599 -9.9866 512.555 9.76206 611.885C29.5107 711.216 78.2717 802.459 149.878 874.076C221.485 945.693 312.721 994.467 412.049 1014.23C511.376 1033.99 614.334 1023.86 707.901 985.105C801.467 946.352 881.441 880.723 937.708 796.518C993.974 712.312 1024.01 613.312 1024.01 512.037H833.518C833.419 597.267 799.518 678.978 739.251 739.245C678.985 799.511 597.274 833.412 512.044 833.511V833.511Z" fill="#24224D"/>
</g>
<defs>
<clipPath id="clip0">
<rect width="1024" height="1024" fill="white"/>
</clipPath>
</defs>
</svg>
